<?xml version="1.0" encoding="UTF-8"?> <svg xmlns="http://www.w3.org/2000/svg" xmlns:xlink="http://www.w3.org/1999/xlink" version="1.1" id="Layer_1" x="0px" y="0px" viewBox="0 0 52.909 7.455" style="enable-background:new 0 0 52.909 7.455;" xml:space="preserve"> <g> <rect x="0" y="0.454" style="fill:none;" width="53" height="6"></rect> <path d="M0.788,3.562c0-1.619,0.968-2.546,2.367-2.546c1.407,0,2.366,0.935,2.366,2.546c0,1.619-0.959,2.591-2.366,2.591 C1.756,6.154,0.788,5.181,0.788,3.562z M4.314,3.562c0-0.988-0.447-1.581-1.159-1.581c-0.704,0-1.159,0.593-1.159,1.581 c0,0.996,0.455,1.626,1.159,1.626C3.867,5.188,4.314,4.558,4.314,3.562z"></path> <path d="M8.875,4.885h-1.6L6.956,6.062H5.757l1.639-4.955h1.407l1.64,4.955H9.194L8.875,4.885z M8.635,4.011L8.507,3.555 C8.363,3.061,8.228,2.476,8.083,1.959H8.052c-0.12,0.524-0.265,1.102-0.408,1.596L7.516,4.011H8.635z"></path> <path d="M11.332,4.672c0.368,0.304,0.848,0.517,1.279,0.517c0.488,0,0.728-0.182,0.728-0.479c0-0.312-0.296-0.41-0.751-0.593 l-0.672-0.273c-0.544-0.205-1.056-0.631-1.056-1.353c0-0.821,0.775-1.475,1.855-1.475c0.6,0,1.231,0.228,1.679,0.654l-0.592,0.707 c-0.344-0.25-0.671-0.395-1.087-0.395c-0.4,0-0.664,0.167-0.664,0.448c0,0.304,0.344,0.411,0.8,0.585l0.663,0.259 c0.632,0.243,1.032,0.646,1.032,1.345c0,0.821-0.72,1.535-1.959,1.535c-0.68,0-1.399-0.243-1.936-0.714L11.332,4.672z"></path> <path d="M15.42,1.108h1.184v4.955H15.42V1.108z"></path> <path d="M18.163,4.672c0.368,0.304,0.848,0.517,1.279,0.517c0.488,0,0.728-0.182,0.728-0.479c0-0.312-0.296-0.41-0.751-0.593 l-0.672-0.273c-0.544-0.205-1.056-0.631-1.056-1.353c0-0.821,0.775-1.475,1.855-1.475c0.6,0,1.231,0.228,1.679,0.654l-0.592,0.707 c-0.344-0.25-0.672-0.395-1.087-0.395c-0.4,0-0.664,0.167-0.664,0.448c0,0.304,0.344,0.411,0.8,0.585l0.664,0.259 c0.631,0.243,1.031,0.646,1.031,1.345c0,0.821-0.72,1.535-1.959,1.535c-0.68,0-1.399-0.243-1.936-0.714L18.163,4.672z"></path> <path d="M23.915,1.108h3.271V2.05h-2.087v0.996h1.775V3.98h-1.775v1.14h2.167v0.942h-3.351V1.108z"></path> <path d="M28.26,1.108h1.175v2.774c0,0.973,0.32,1.307,0.903,1.307c0.584,0,0.928-0.334,0.928-1.307V1.108h1.136v2.66 c0,1.664-0.712,2.386-2.063,2.386c-1.351,0-2.078-0.722-2.078-2.386V1.108z"></path> <path d="M36.409,6.062L35.41,4.277h-0.64v1.786h-1.184V1.108h1.879c1.104,0,2.016,0.365,2.016,1.542 c0,0.729-0.376,1.193-0.928,1.429l1.175,1.983H36.409z M34.771,3.388h0.6c0.615,0,0.951-0.251,0.951-0.737 s-0.336-0.653-0.951-0.653h-0.6V3.388z"></path> <path d="M38.259,3.562c0-1.619,0.968-2.546,2.367-2.546c1.407,0,2.366,0.935,2.366,2.546c0,1.619-0.959,2.591-2.366,2.591 C39.227,6.154,38.259,5.181,38.259,3.562z M41.785,3.562c0-0.988-0.447-1.581-1.159-1.581c-0.704,0-1.159,0.593-1.159,1.581 c0,0.996,0.455,1.626,1.159,1.626C41.338,5.188,41.785,4.558,41.785,3.562z"></path> <path d="M43.971,1.108h1.903c1.135,0,2.039,0.395,2.039,1.596c0,1.163-0.936,1.68-2.039,1.68h-0.72v1.679h-1.184V1.108z M45.802,3.494c0.647,0,0.96-0.273,0.96-0.791c0-0.517-0.336-0.707-0.96-0.707h-0.647v1.497H45.802z"></path> <path d="M48.811,1.108h3.271V2.05h-2.087v0.996h1.775V3.98h-1.775v1.14h2.167v0.942h-3.351V1.108z"></path> </g> <g> </g> <g> </g> <g> </g> <g> </g> <g> </g> <g> </g> <g> </g> <g> </g> <g> </g> <g> </g> <g> </g> <g> </g> <g> </g> <g> </g> <g> </g> </svg> 